<svg width="28" height="28" viewBox="0 0 28 28" fill="none" xmlns="http://www.w3.org/2000/svg">
<path d="M8.83301 17.4997V17.9997H9.33301H11.1663V24.8033C6.37512 23.546 2.83301 19.189 2.83301 13.9997C2.83301 7.83582 7.83582 2.83301 13.9997 2.83301C20.1635 2.83301 25.1663 7.83582 25.1663 13.9997C25.1663 19.6054 21.0394 24.2398 15.6663 25.0423V17.9997H18.6663H19.1663V17.4997V13.9997V13.4997H18.6663H15.6663V11.6663C15.6663 11.3008 15.9675 10.9997 16.333 10.9997H18.6663H19.1663V10.4997V6.99967V6.49967H18.6663H15.7497C13.2219 6.49967 11.1663 8.5552 11.1663 11.083V13.4997H9.33301H8.83301V13.9997V17.4997Z" fill="#234189" stroke="#234189"/>
</svg>
