<svg width="28" height="28" viewBox="0 0 28 28" fill="none" xmlns="http://www.w3.org/2000/svg">
<path d="M21.4602 3.41154L21.4618 3.41214C22.1695 3.68452 22.7583 4.04847 23.3554 4.64456L23.3582 4.64723C23.8996 5.17951 24.3185 5.82339 24.5859 6.53404L24.5858 6.53405L24.5877 6.53877C24.8538 7.2252 25.0407 8.01801 25.0969 9.21343C25.1512 10.4459 25.1663 10.8335 25.1663 13.9997C25.1663 17.1677 25.1547 17.5537 25.0969 18.7852C25.0408 19.9809 24.8539 20.7728 24.5876 21.4608L24.5875 21.4608L24.5857 21.4658C24.3192 22.1765 23.9004 22.8202 23.3586 23.3517L23.3585 23.3517L23.3522 23.358C22.8197 23.8994 22.1758 24.3183 21.4652 24.5859L21.4652 24.5859L21.4606 24.5877C20.7742 24.8538 19.9813 25.0407 18.7859 25.0969C17.5535 25.1512 17.1658 25.1663 13.9997 25.1663C10.8316 25.1663 10.4457 25.1547 9.2141 25.0969C8.01846 25.0408 7.22651 24.8539 6.53853 24.5876L6.53854 24.5875L6.53366 24.5857C5.82298 24.319 5.17922 23.9002 4.64751 23.3584L4.64757 23.3584L4.64114 23.3521C4.09963 22.8199 3.6807 22.1761 3.41353 21.4654L3.41356 21.4654L3.41144 21.4599C3.1445 20.7743 2.95869 19.9818 2.90249 18.7859C2.84815 17.5535 2.83301 17.1658 2.83301 13.9997C2.83301 10.8316 2.84469 10.4457 2.90246 9.2141C2.95861 8.01686 3.14439 7.22643 3.41154 6.53916L3.41157 6.53917L3.41372 6.53345C3.68002 5.82275 4.09886 5.17905 4.64075 4.64767L4.64081 4.64774L4.6474 4.64102C5.17933 4.09941 5.82314 3.6805 6.53381 3.41358L6.53382 3.41361L6.53916 3.41154C7.22629 3.14444 8.01655 2.95869 9.2134 2.90249C10.4459 2.84815 10.8335 2.83301 13.9997 2.83301C17.1677 2.83301 17.5537 2.84469 18.7852 2.90246C19.9814 2.95861 20.773 3.1444 21.4602 3.41154ZM13.9997 7.66634C12.32 7.66634 10.7091 8.3336 9.52133 9.52133C8.3336 10.7091 7.66634 12.32 7.66634 13.9997C7.66634 15.6794 8.3336 17.2903 9.52133 18.478C10.7091 19.6657 12.32 20.333 13.9997 20.333C15.6794 20.333 17.2903 19.6657 18.478 18.478C19.6657 17.2903 20.333 15.6794 20.333 13.9997C20.333 12.32 19.6657 10.7091 18.478 9.52133C17.2903 8.3336 15.6794 7.66634 13.9997 7.66634ZM22.083 7.87467C22.083 7.35529 21.8767 6.85718 21.5094 6.48992C21.1422 6.12267 20.6441 5.91634 20.1247 5.91634C19.6053 5.91634 19.1072 6.12267 18.7399 6.48992C18.3727 6.85718 18.1663 7.35529 18.1663 7.87467C18.1663 8.39406 18.3727 8.89217 18.7399 9.25943C19.1072 9.62668 19.6053 9.83301 20.1247 9.83301C20.6441 9.83301 21.1422 9.62668 21.5094 9.25943C21.8767 8.89217 22.083 8.39406 22.083 7.87467ZM13.9997 10.9997C14.7953 10.9997 15.5584 11.3157 16.121 11.8784C16.6836 12.441 16.9997 13.204 16.9997 13.9997C16.9997 14.7953 16.6836 15.5584 16.121 16.121C15.5584 16.6836 14.7953 16.9997 13.9997 16.9997C13.204 16.9997 12.441 16.6836 11.8784 16.121C11.3157 15.5584 10.9997 14.7953 10.9997 13.9997C10.9997 13.204 11.3157 12.441 11.8784 11.8784C12.441 11.3157 13.204 10.9997 13.9997 10.9997Z" fill="#234189" stroke="#234189"/>
</svg>
