<svg width="28" height="28" viewBox="0 0 28 28" fill="none" xmlns="http://www.w3.org/2000/svg">
<path d="M9.53885 23.001H9.539C18.2627 23.001 23.0505 15.7813 23.0505 9.50004C23.0505 9.28818 23.0504 9.08594 23.042 8.88845L23.0304 8.61974L23.2483 8.46202C23.7095 8.12816 24.1389 7.75431 24.5318 7.34536C24.1028 7.4534 23.6668 7.53433 23.2264 7.58744L22.91 6.66186C23.4221 6.35577 23.863 5.9526 24.2111 5.47973C23.5955 5.72924 22.9561 5.91908 22.3016 6.04591L22.0308 6.09839L21.842 5.8973C21.1751 5.18702 20.2925 4.71648 19.3311 4.55857C18.3697 4.40065 17.383 4.56418 16.5239 5.02381C15.6648 5.48345 14.9812 6.21354 14.5791 7.101C14.177 7.98846 14.0787 8.98376 14.2995 9.93273L14.4498 10.5786L13.7875 10.5454C11.7596 10.4437 9.77573 9.91692 7.96456 8.99916C6.38593 8.19923 4.96922 7.11787 3.78307 5.81039C3.47573 6.62552 3.41344 7.51879 3.613 8.37779C3.86786 9.47487 4.53071 10.4338 5.46695 11.0599L6.92474 12.0348L5.17202 11.9753C4.60731 11.9561 4.05076 11.8498 3.52162 11.6618C3.64897 12.4174 3.97092 13.1315 4.46134 13.7311C5.10777 14.5215 6.00725 15.0644 7.00776 15.2681L7.04079 16.2401C6.57482 16.3685 6.09349 16.4325 5.61017 16.4305M9.53885 23.001L5.60827 16.4305C5.6089 16.4305 5.60953 16.4305 5.61017 16.4305M9.53885 23.001C7.6384 23.0016 5.76703 22.6015 4.04403 21.8356C6.06284 21.6682 7.99572 20.9129 9.59884 19.6538L10.7042 18.7856L9.29887 18.7606C8.37588 18.7442 7.48112 18.4396 6.73992 17.8893C6.21469 17.4994 5.78521 16.9999 5.47892 16.4293M9.53885 23.001L5.47892 16.4293M5.61017 16.4305C5.5664 16.4307 5.52265 16.4302 5.47892 16.4293M5.61017 16.4305L5.24497 15.9178C5.31223 16.0936 5.39044 16.2644 5.47892 16.4293M3.17 21.371C3.14668 21.3711 3.12335 21.3711 3.10004 21.3711C3.1233 21.3837 3.1466 21.3962 3.16994 21.4087L3.17 21.371ZM3.17 21.371C5.13041 21.3742 7.04136 20.7944 8.66348 19.7141M3.17 21.371L3.17016 21.4088L8.66348 19.7141M8.66348 19.7141C8.86757 19.7412 9.07377 19.7568 9.28113 19.7605L9.29 19.2605L8.98116 18.8673C8.8384 18.9795 8.69275 19.0872 8.54442 19.1904C7.78611 19.0602 7.0652 18.7535 6.44187 18.2908C5.77262 17.7939 5.24305 17.1373 4.89897 16.3849L8.66348 19.7141Z" fill="#234189" stroke="#234189"/>
</svg>
