<?xml version="1.0" encoding="UTF-8"?>
<svg id="Layer_2" data-name="Layer 2" xmlns="http://www.w3.org/2000/svg" width="404.17" height="278.25" viewBox="0 0 404.17 278.25">
  <defs>
    <style>
      .cls-1 {
        fill: #ef3a47;
      }

      .cls-2 {
        fill: #d9dad9;
      }

      .cls-3 {
        fill: #224187;
      }

      .cls-4 {
        fill: #58595b;
      }
    </style>
  </defs>
  <g id="Layer_1-2" data-name="Layer 1">
    <g>
      <g>
        <polygon class="cls-3" points="162.7 87.95 183.39 123.78 204.08 159.62 162.7 159.62 121.32 159.62 142.01 123.78 162.7 87.95"/>
        <path class="cls-2" d="m213.28,157.92L123.48,0h55.99l77.67,136.76s-11.61,18.84-43.87,21.16"/>
        <path class="cls-1" d="m264.11,128.76L191.35,0l13.68.26s46.44-.77,69.67,45.16c23.22,45.93-10.58,83.34-10.58,83.34"/>
      </g>
      <path d="m9.7,228.96c0,.66.36.99,1.07.99h13.39c5.37,0,9.26-1.42,11.67-4.27,2.41-2.85,3.62-7.45,3.62-13.8s-1.19-10.94-3.57-13.76c-2.38-2.82-6.29-4.23-11.71-4.23h-13.39c-.71,0-1.07.33-1.07.99v34.1Zm14.46-44.78c8.16,0,14.36,2.27,18.61,6.82,4.25,4.55,6.37,11.53,6.37,20.95s-2.12,16.32-6.37,20.87-10.45,6.82-18.61,6.82H4.6c-3.07,0-4.6-1.51-4.6-4.52v-46.42c0-3.01,1.53-4.52,4.6-4.52h19.55Z"/>
      <path d="m77.81,184.18v37.06c0,2.79.72,4.95,2.18,6.45,1.45,1.51,3.79,2.26,7.03,2.26h9.86c3.12,0,5.42-.75,6.9-2.26,1.48-1.51,2.22-3.66,2.22-6.45v-37.06h9.53v37.8c0,5.86-1.51,10.27-4.52,13.23-3.01,2.96-7.51,4.44-13.47,4.44h-11.67c-11.94,0-17.91-5.89-17.91-17.67v-37.8h9.86Z"/>
      <path d="m166.22,184.18c3.12,0,5.81.45,8.05,1.36,2.24.9,4.09,2.11,5.55,3.61,1.45,1.51,2.52,3.28,3.2,5.3.68,2.03,1.03,4.14,1.03,6.33,0,1.75-.22,3.49-.66,5.22-.44,1.73-1.12,3.34-2.05,4.85-.93,1.51-2.14,2.84-3.61,3.99-1.48,1.15-3.29,2.03-5.42,2.63l12.9,22.18h-10.76l-12.65-21.44h-14.46c-.93,0-1.4.47-1.4,1.4v20.05h-9.7v-21.94c0-3.12.68-5.37,2.05-6.74,1.37-1.37,3.59-2.05,6.65-2.05h21.61c1.37,0,2.55-.22,3.53-.66.99-.44,1.78-1.01,2.38-1.73.6-.71,1.05-1.53,1.36-2.47.3-.93.45-1.89.45-2.88,0-1.97-.62-3.68-1.85-5.14-1.23-1.45-3.19-2.18-5.87-2.18h-30.4v-9.7h30.07Z"/>
      <path d="m208.29,239.64h-10.68l19.47-49.3c1.04-2.63,2.51-4.48,4.4-5.55,1.89-1.07,4.31-1.6,7.27-1.6s5.3.53,7.19,1.6c1.89,1.07,3.33,2.92,4.31,5.55l18.73,49.3h-10.76l-16.84-44.62c-.49-1.26-1.4-1.89-2.71-1.89s-2.25.63-2.79,1.89l-17.58,44.62Z"/>
      <path d="m284.62,239.64h-9.7v-44.37c0-3.61,1.04-6.53,3.12-8.75,2.08-2.22,5.29-3.33,9.62-3.33,3.83,0,6.75.92,8.75,2.75,2,1.84,3.57,4.34,4.72,7.52l16.19,35.41c.33.66.77,1.21,1.31,1.64.55.44,1.29.66,2.22.66,1.04,0,1.85-.29,2.42-.86.57-.58.86-1.33.86-2.26v-43.88h9.78v44.29c0,3.67-1.05,6.61-3.16,8.83-2.11,2.22-5.3,3.33-9.57,3.33-1.92,0-3.6-.23-5.05-.7-1.45-.46-2.71-1.15-3.78-2.05-1.07-.9-1.98-1.99-2.75-3.25-.77-1.26-1.42-2.68-1.97-4.27l-16.19-35.41c-.71-1.59-1.86-2.38-3.45-2.38-1.1,0-1.93.29-2.51.86-.58.58-.86,1.36-.86,2.34v43.88Z"/>
      <path d="m364.73,228.96c0,.66.36.99,1.07.99h13.39c5.37,0,9.26-1.42,11.67-4.27s3.61-7.45,3.61-13.8-1.19-10.94-3.57-13.76c-2.38-2.82-6.28-4.23-11.71-4.23h-13.39c-.71,0-1.07.33-1.07.99v34.1Zm14.46-44.78c8.16,0,14.36,2.27,18.61,6.82,4.24,4.55,6.37,11.53,6.37,20.95s-2.12,16.32-6.37,20.87c-4.25,4.55-10.45,6.82-18.61,6.82h-19.55c-3.07,0-4.6-1.51-4.6-4.52v-46.42c0-3.01,1.53-4.52,4.6-4.52h19.55Z"/>
      <path class="cls-4" d="m68.51,263.54h-2.37v-2.01h2.37v-1.91c0-2.46,1.06-3.74,3.53-3.74h1.85v2.19h-1.19c-1.09,0-1.64.43-1.64,1.55v1.91h2.8v2.01h-2.8v14.29h-2.55v-14.29Z"/>
      <path class="cls-4" d="m90.81,261.53h2.55v2.43h.06c.73-1.55,1.67-2.86,3.53-2.86.52,0,.88.06,1.13.18v2.49c-.24-.03-.55-.12-1.37-.12-1.28,0-3.35,1.19-3.35,3.86v10.3h-2.55v-16.29Z"/>
      <path class="cls-4" d="m123.03,267.98v-.88c0-1.82-.55-3.98-2.83-3.98-2.68,0-2.98,3.28-2.98,4.26v.61h5.81Zm-5.9,2.01c0,2.52,0,6.26,3.13,6.26,2.43,0,2.77-2.53,2.77-3.77h2.55c0,1.73-1,5.78-5.47,5.78-4.01,0-5.65-2.73-5.65-8.36,0-4.04.79-8.78,5.81-8.78s5.44,4.32,5.44,7.84v1.03h-8.57Z"/>
      <path class="cls-4" d="m143.7,261.53h2.43v1.92h.06c.7-1.49,2.37-2.34,3.95-2.34,4.29,0,4.29,3.22,4.29,5.17v11.55h-2.55v-11.25c0-1.25-.09-3.28-2.4-3.28-1.37,0-3.22.94-3.22,3.28v11.25h-2.55v-16.29Z"/>
      <path class="cls-4" d="m180.72,266.49c0-1.58-.64-3.37-2.58-3.37-1.58,0-3.19.79-3.19,6.75,0,2.1.03,6.38,3.1,6.38,2.19,0,2.68-2.31,2.68-4.07h2.55c0,2.55-1.28,6.08-5.35,6.08s-5.65-2.73-5.65-8.36c0-4.04.79-8.79,5.81-8.79,4.47,0,5.2,3.53,5.2,5.38h-2.55Z"/>
      <path class="cls-4" d="m201.11,256.12h2.55v7.27h.06c.67-1.34,2.46-2.28,3.92-2.28,4.23,0,4.19,3.22,4.19,5.17v11.55h-2.55v-11.25c0-1.25-.09-3.28-2.4-3.28-1.37,0-3.22.94-3.22,3.28v11.25h-2.55v-21.71Z"/>
      <path class="cls-4" d="m253.11,261.53h2.43v1.92h.06c.7-1.49,2.37-2.34,3.95-2.34,1.92,0,3.01.73,3.53,2.58.73-1.43,2.16-2.58,3.86-2.58,4.29,0,4.29,3.22,4.29,5.17v11.55h-2.55v-11.25c0-1.25-.09-3.28-2.19-3.28-1.22,0-3.04.73-3.04,3.28v11.25h-2.55v-11.25c0-1.25-.09-3.28-2.19-3.28-1.22,0-3.04.73-3.04,3.28v11.25h-2.55v-16.29Z"/>
      <path class="cls-4" d="m290.16,261.53h2.55v16.29h-2.55v-16.29Zm0-5.41h2.55v2.92h-2.55v-2.92Z"/>
      <polygon class="cls-4" points="310.22 261.53 313.01 261.53 315.96 267.34 318.94 261.53 321.74 261.53 317.48 269.35 321.89 277.83 319.09 277.83 315.84 271.38 312.71 277.83 309.91 277.83 314.38 269.35 310.22 261.53"/>
    </g>
  </g>
</svg>